<?xml version="1.0" encoding="UTF-8" standalone="no"?>
<!DOCTYPE svg PUBLIC "-//W3C//DTD SVG 1.1//EN"
 "http://www.w3.org/Graphics/SVG/1.1/DTD/svg11.dtd">
<!-- Generated by graphviz version 2.47.0 (20210316.0004)
 -->
<!-- Title: dbml Pages: 1 -->
<svg width="1215pt" height="1056pt"
 viewBox="0.00 0.00 1214.97 1055.77" xmlns="http://www.w3.org/2000/svg" xmlns:xlink="http://www.w3.org/1999/xlink">
<g id="graph0" class="graph" transform="scale(1 1) rotate(0) translate(4 1051.77)">
<title>dbml</title>
<!-- workspace -->
<g id="workspace" class="node">
<title>workspace</title>
<ellipse fill="none" stroke="black" stroke-width="0" cx="931.2" cy="-875.24" rx="275.54" ry="172.57"/>
<polygon fill="#1d71b8" stroke="transparent" points="738.2,-935.24 738.2,-995.24 1124.2,-995.24 1124.2,-935.24 738.2,-935.24"/>
<polygon fill="none" stroke="#29235c" points="738.2,-935.24 738.2,-995.24 1124.2,-995.24 1124.2,-935.24 738.2,-935.24"/>
<text text-anchor="start" x="792.49" y="-956.44" font-family="Helvetica,sans-Serif" font-weight="bold" font-size="32.00" fill="#ffffff"> &#160;&#160;&#160;&#160;&#160;&#160;workspace &#160;&#160;&#160;&#160;&#160;&#160;</text>
<polygon fill="#e7e2dd" stroke="transparent" points="738.2,-875.24 738.2,-935.24 1124.2,-935.24 1124.2,-875.24 738.2,-875.24"/>
<polygon fill="none" stroke="#29235c" points="738.2,-875.24 738.2,-935.24 1124.2,-935.24 1124.2,-875.24 738.2,-875.24"/>
<text text-anchor="start" x="749.2" y="-895.44" font-family="Helvetica,sans-Serif" font-size="32.00" fill="#29235c">workspace_id &#160;&#160;&#160;</text>
<text text-anchor="start" x="1034.97" y="-896.44" font-family="Helvetica,sans-Serif" font-style="italic" font-size="32.00" fill="#29235c">string</text>
<polygon fill="#e7e2dd" stroke="transparent" points="738.2,-815.24 738.2,-875.24 1124.2,-875.24 1124.2,-815.24 738.2,-815.24"/>
<polygon fill="none" stroke="#29235c" points="738.2,-815.24 738.2,-875.24 1124.2,-875.24 1124.2,-815.24 738.2,-815.24"/>
<text text-anchor="start" x="749.05" y="-835.44" font-family="Helvetica,sans-Serif" font-size="32.00" fill="#29235c">workspace_name &#160;&#160;&#160;</text>
<text text-anchor="start" x="1035.09" y="-836.44" font-family="Helvetica,sans-Serif" font-style="italic" font-size="32.00" fill="#29235c">string</text>
<polygon fill="#e7e2dd" stroke="transparent" points="738.2,-755.24 738.2,-815.24 1124.2,-815.24 1124.2,-755.24 738.2,-755.24"/>
<polygon fill="none" stroke="#29235c" points="738.2,-755.24 738.2,-815.24 1124.2,-815.24 1124.2,-755.24 738.2,-755.24"/>
<text text-anchor="start" x="749.2" y="-775.44" font-family="Helvetica,sans-Serif" font-size="32.00" fill="#29235c">created_at &#160;&#160;&#160;</text>
<text text-anchor="start" x="1034.97" y="-776.44" font-family="Helvetica,sans-Serif" font-style="italic" font-size="32.00" fill="#29235c">string</text>
<polygon fill="none" stroke="#29235c" stroke-width="2" points="737.2,-754.24 737.2,-996.24 1125.2,-996.24 1125.2,-754.24 737.2,-754.24"/>
</g>
<!-- workspace_member -->
<g id="workspace_member" class="node">
<title>workspace_member</title>
<ellipse fill="none" stroke="black" stroke-width="0" cx="309.71" cy="-638.24" rx="309.93" ry="257.27"/>
<polygon fill="#1d71b8" stroke="transparent" points="92.71,-758.24 92.71,-818.24 526.71,-818.24 526.71,-758.24 92.71,-758.24"/>
<polygon fill="none" stroke="#29235c" points="92.71,-758.24 92.71,-818.24 526.71,-818.24 526.71,-758.24 92.71,-758.24"/>
<text text-anchor="start" x="103.45" y="-779.44" font-family="Helvetica,sans-Serif" font-weight="bold" font-size="32.00" fill="#ffffff"> &#160;&#160;&#160;&#160;&#160;&#160;workspace_member &#160;&#160;&#160;&#160;&#160;&#160;</text>
<polygon fill="#e7e2dd" stroke="transparent" points="92.71,-698.24 92.71,-758.24 526.71,-758.24 526.71,-698.24 92.71,-698.24"/>
<polygon fill="none" stroke="#29235c" points="92.71,-698.24 92.71,-758.24 526.71,-758.24 526.71,-698.24 92.71,-698.24"/>
<text text-anchor="start" x="103.71" y="-718.44" font-family="Helvetica,sans-Serif" font-size="32.00" fill="#29235c">workspace_id &#160;&#160;&#160;</text>
<text text-anchor="start" x="437.49" y="-719.44" font-family="Helvetica,sans-Serif" font-style="italic" font-size="32.00" fill="#29235c">string</text>
<polygon fill="#e7e2dd" stroke="transparent" points="92.71,-638.24 92.71,-698.24 526.71,-698.24 526.71,-638.24 92.71,-638.24"/>
<polygon fill="none" stroke="#29235c" points="92.71,-638.24 92.71,-698.24 526.71,-698.24 526.71,-638.24 92.71,-638.24"/>
<text text-anchor="start" x="103.71" y="-658.44" font-family="Helvetica,sans-Serif" font-size="32.00" fill="#29235c">keycloak_user_id &#160;&#160;&#160;</text>
<text text-anchor="start" x="437.49" y="-659.44" font-family="Helvetica,sans-Serif" font-style="italic" font-size="32.00" fill="#29235c">string</text>
<polygon fill="#e7e2dd" stroke="transparent" points="92.71,-578.24 92.71,-638.24 526.71,-638.24 526.71,-578.24 92.71,-578.24"/>
<polygon fill="none" stroke="#29235c" points="92.71,-578.24 92.71,-638.24 526.71,-638.24 526.71,-578.24 92.71,-578.24"/>
<text text-anchor="start" x="103.71" y="-598.44" font-family="Helvetica,sans-Serif" font-size="32.00" fill="#29235c">role &#160;&#160;&#160;</text>
<text text-anchor="start" x="437.49" y="-599.44" font-family="Helvetica,sans-Serif" font-style="italic" font-size="32.00" fill="#29235c">string</text>
<polygon fill="#e7e2dd" stroke="transparent" points="92.71,-518.24 92.71,-578.24 526.71,-578.24 526.71,-518.24 92.71,-518.24"/>
<polygon fill="none" stroke="#29235c" points="92.71,-518.24 92.71,-578.24 526.71,-578.24 526.71,-518.24 92.71,-518.24"/>
<text text-anchor="start" x="103.71" y="-538.44" font-family="Helvetica,sans-Serif" font-size="32.00" fill="#29235c">inserted_at &#160;&#160;&#160;</text>
<text text-anchor="start" x="437.49" y="-539.44" font-family="Helvetica,sans-Serif" font-style="italic" font-size="32.00" fill="#29235c">string</text>
<polygon fill="#e7e2dd" stroke="transparent" points="92.71,-458.24 92.71,-518.24 526.71,-518.24 526.71,-458.24 92.71,-458.24"/>
<polygon fill="none" stroke="#29235c" points="92.71,-458.24 92.71,-518.24 526.71,-518.24 526.71,-458.24 92.71,-458.24"/>
<text text-anchor="start" x="103.71" y="-478.44" font-family="Helvetica,sans-Serif" font-size="32.00" fill="#29235c">removed_at &#160;&#160;&#160;</text>
<text text-anchor="start" x="437.49" y="-479.44" font-family="Helvetica,sans-Serif" font-style="italic" font-size="32.00" fill="#29235c">string</text>
<polygon fill="none" stroke="#29235c" stroke-width="2" points="91.71,-457.24 91.71,-819.24 527.71,-819.24 527.71,-457.24 91.71,-457.24"/>
</g>
<!-- workspace_member&#45;&gt;workspace -->
<!-- workspace_member&#45;&gt;workspace -->
<g id="edge4" class="edge">
<title>workspace_member:e&#45;&gt;workspace:w</title>
<path fill="none" stroke="#29235c" stroke-width="3" d="M527.71,-728.24C646.03,-728.24 617.18,-895.02 726.88,-904.79"/>
<polygon fill="#29235c" stroke="#29235c" stroke-width="3" points="727.06,-908.3 737.2,-905.24 727.36,-901.31 727.06,-908.3"/>
<text text-anchor="middle" x="728.3" y="-914.84" font-family="Helvetica,sans-Serif" font-size="32.00" fill="#29235c">1</text>
<text text-anchor="middle" x="521.49" y="-737.84" font-family="Helvetica,sans-Serif" font-size="32.00" fill="#29235c">*</text>
</g>
<!-- keycloak_user -->
<g id="keycloak_user" class="node">
<title>keycloak_user</title>
<ellipse fill="none" stroke="black" stroke-width="0" cx="931.2" cy="-342.24" rx="272.89" ry="342.48"/>
<polygon fill="#1d71b8" stroke="transparent" points="740.2,-522.24 740.2,-582.24 1122.2,-582.24 1122.2,-522.24 740.2,-522.24"/>
<polygon fill="none" stroke="#29235c" points="740.2,-522.24 740.2,-582.24 1122.2,-582.24 1122.2,-522.24 740.2,-522.24"/>
<text text-anchor="start" x="766.7" y="-543.44" font-family="Helvetica,sans-Serif" font-weight="bold" font-size="32.00" fill="#ffffff"> &#160;&#160;&#160;&#160;&#160;&#160;keycloak_user &#160;&#160;&#160;&#160;&#160;&#160;</text>
<polygon fill="#e7e2dd" stroke="transparent" points="740.2,-462.24 740.2,-522.24 1122.2,-522.24 1122.2,-462.24 740.2,-462.24"/>
<polygon fill="none" stroke="#29235c" points="740.2,-462.24 740.2,-522.24 1122.2,-522.24 1122.2,-462.24 740.2,-462.24"/>
<text text-anchor="start" x="750.83" y="-482.44" font-family="Helvetica,sans-Serif" font-size="32.00" fill="#29235c">keycloak_user_id &#160;&#160;&#160;</text>
<text text-anchor="start" x="1033.09" y="-483.44" font-family="Helvetica,sans-Serif" font-style="italic" font-size="32.00" fill="#29235c">string</text>
<polygon fill="#e7e2dd" stroke="transparent" points="740.2,-402.24 740.2,-462.24 1122.2,-462.24 1122.2,-402.24 740.2,-402.24"/>
<polygon fill="none" stroke="#29235c" points="740.2,-402.24 740.2,-462.24 1122.2,-462.24 1122.2,-402.24 740.2,-402.24"/>
<text text-anchor="start" x="751.2" y="-422.44" font-family="Helvetica,sans-Serif" font-size="32.00" fill="#29235c">email &#160;&#160;&#160;</text>
<text text-anchor="start" x="1032.97" y="-423.44" font-family="Helvetica,sans-Serif" font-style="italic" font-size="32.00" fill="#29235c">string</text>
<polygon fill="#e7e2dd" stroke="transparent" points="740.2,-342.24 740.2,-402.24 1122.2,-402.24 1122.2,-342.24 740.2,-342.24"/>
<polygon fill="none" stroke="#29235c" points="740.2,-342.24 740.2,-402.24 1122.2,-402.24 1122.2,-342.24 740.2,-342.24"/>
<text text-anchor="start" x="751.2" y="-362.44" font-family="Helvetica,sans-Serif" font-size="32.00" fill="#29235c">email_verified &#160;&#160;&#160;</text>
<text text-anchor="start" x="997.36" y="-363.44" font-family="Helvetica,sans-Serif" font-style="italic" font-size="32.00" fill="#29235c">boolean</text>
<polygon fill="#e7e2dd" stroke="transparent" points="740.2,-282.24 740.2,-342.24 1122.2,-342.24 1122.2,-282.24 740.2,-282.24"/>
<polygon fill="none" stroke="#29235c" points="740.2,-282.24 740.2,-342.24 1122.2,-342.24 1122.2,-282.24 740.2,-282.24"/>
<text text-anchor="start" x="751.2" y="-302.44" font-family="Helvetica,sans-Serif" font-size="32.00" fill="#29235c">enabled &#160;&#160;&#160;</text>
<text text-anchor="start" x="997.36" y="-303.44" font-family="Helvetica,sans-Serif" font-style="italic" font-size="32.00" fill="#29235c">boolean</text>
<polygon fill="#e7e2dd" stroke="transparent" points="740.2,-222.24 740.2,-282.24 1122.2,-282.24 1122.2,-222.24 740.2,-222.24"/>
<polygon fill="none" stroke="#29235c" points="740.2,-222.24 740.2,-282.24 1122.2,-282.24 1122.2,-222.24 740.2,-222.24"/>
<text text-anchor="start" x="751.2" y="-242.44" font-family="Helvetica,sans-Serif" font-size="32.00" fill="#29235c">realm_id &#160;&#160;&#160;</text>
<text text-anchor="start" x="1032.97" y="-243.44" font-family="Helvetica,sans-Serif" font-style="italic" font-size="32.00" fill="#29235c">string</text>
<polygon fill="#e7e2dd" stroke="transparent" points="740.2,-162.24 740.2,-222.24 1122.2,-222.24 1122.2,-162.24 740.2,-162.24"/>
<polygon fill="none" stroke="#29235c" points="740.2,-162.24 740.2,-222.24 1122.2,-222.24 1122.2,-162.24 740.2,-162.24"/>
<text text-anchor="start" x="751.2" y="-182.44" font-family="Helvetica,sans-Serif" font-size="32.00" fill="#29235c">created_at &#160;&#160;&#160;</text>
<text text-anchor="start" x="1032.97" y="-183.44" font-family="Helvetica,sans-Serif" font-style="italic" font-size="32.00" fill="#29235c">string</text>
<polygon fill="#e7e2dd" stroke="transparent" points="740.2,-102.24 740.2,-162.24 1122.2,-162.24 1122.2,-102.24 740.2,-102.24"/>
<polygon fill="none" stroke="#29235c" points="740.2,-102.24 740.2,-162.24 1122.2,-162.24 1122.2,-102.24 740.2,-102.24"/>
<text text-anchor="start" x="751.2" y="-122.44" font-family="Helvetica,sans-Serif" font-size="32.00" fill="#29235c">identity_providers &#160;&#160;&#160;</text>
<text text-anchor="start" x="1038.31" y="-123.44" font-family="Helvetica,sans-Serif" font-style="italic" font-size="32.00" fill="#29235c">array</text>
<polygon fill="none" stroke="#29235c" stroke-width="2" points="739.2,-101.24 739.2,-583.24 1123.2,-583.24 1123.2,-101.24 739.2,-101.24"/>
</g>
<!-- workspace_member&#45;&gt;keycloak_user -->
<!-- workspace_member&#45;&gt;keycloak_user -->
<g id="edge2" class="edge">
<title>workspace_member:e&#45;&gt;keycloak_user:w</title>
<path fill="none" stroke="#29235c" stroke-width="3" d="M527.71,-668.24C646.53,-668.24 618.66,-502.07 729.17,-492.66"/>
<polygon fill="#29235c" stroke="#29235c" stroke-width="3" points="729.35,-496.15 739.2,-492.24 729.06,-489.16 729.35,-496.15"/>
<text text-anchor="middle" x="730.3" y="-463.44" font-family="Helvetica,sans-Serif" font-size="32.00" fill="#29235c">1</text>
<text text-anchor="middle" x="521.49" y="-677.84" font-family="Helvetica,sans-Serif" font-size="32.00" fill="#29235c">*</text>
</g>
</g>
</svg>
